<?xml version="1.0" standalone="no"?>
<!DOCTYPE svg PUBLIC "-//W3C//DTD SVG 20010904//EN"
 "http://www.w3.org/TR/2001/REC-SVG-20010904/DTD/svg10.dtd">
<svg version="1.0" xmlns="http://www.w3.org/2000/svg"
 width="512.000000pt" height="512.000000pt" viewBox="0 0 512.000000 512.000000"
 preserveAspectRatio="xMidYMid meet">
<metadata>
Created by potrace 1.11, written by Peter Selinger 2001-2013
</metadata>
<g transform="translate(0.000000,512.000000) scale(0.100000,-0.100000)"
fill="#000000" stroke="none">
<path d="M2379 5116 c-2 -2 -40 -6 -83 -10 -44 -4 -82 -8 -85 -10 -3 -2 -31
-7 -61 -11 -30 -3 -75 -11 -100 -17 -25 -5 -56 -12 -70 -14 -14 -3 -72 -18
-129 -35 -464 -133 -906 -414 -1213 -769 -71 -82 -82 -96 -104 -125 -10 -15
-33 -46 -50 -69 -253 -340 -426 -793 -472 -1236 -14 -138 -6 -535 13 -615 2
-11 6 -36 9 -55 3 -29 29 -156 42 -210 15 -62 36 -138 44 -155 4 -11 20 -54
33 -95 38 -113 156 -365 205 -437 10 -15 45 -68 78 -118 328 -498 850 -877
1432 -1039 87 -24 207 -51 279 -62 21 -3 49 -7 63 -10 97 -18 494 -26 615 -12
381 44 708 151 1025 335 701 409 1176 1144 1257 1943 19 186 7 561 -23 702
-11 53 -24 115 -28 138 -31 156 -115 389 -206 572 -335 671 -954 1167 -1680
1344 -58 14 -116 28 -130 30 -70 11 -85 14 -195 30 -44 6 -460 15 -466 10z"/>
</g>
</svg>
